<svg width="19" height="17" viewBox="0 0 19 17" fill="none" xmlns="http://www.w3.org/2000/svg">
<path fill-rule="evenodd" clip-rule="evenodd" d="M8.93025 0.22876C9.24937 -0.0762533 9.75064 -0.0762533 10.0698 0.22876L16.6784 6.547L18.7437 8.52148C19.074 8.83726 19.0867 9.36219 18.7721 9.6939C18.4575 10.0255 17.9346 10.0383 17.6042 9.72242L16.9348 9.08248V15.3415C16.9348 16.2575 16.1951 17 15.2826 17H11.1522H7.84783H3.71739C2.80492 17 2.06522 16.2575 2.06522 15.3415V9.08248L1.39581 9.72242C1.06542 10.0383 0.542534 10.0255 0.227888 9.6939C-0.0867573 9.36219 -0.0740041 8.83726 0.256374 8.52148L2.32159 6.547L8.93025 0.22876ZM3.71739 7.50289V15.3415H7.02174V11.1951C7.02174 9.82111 8.13126 8.70731 9.5 8.70731C10.8687 8.70731 11.9783 9.82111 11.9783 11.1951V15.3415H15.2826V7.50289L9.5 1.97444L3.71739 7.50289ZM10.3261 15.3415V11.1951C10.3261 10.7371 9.95625 10.3659 9.5 10.3659C9.04375 10.3659 8.67391 10.7371 8.67391 11.1951V15.3415H10.3261Z" fill="white"/>
</svg>
