<svg width="19" height="15" viewBox="0 0 19 15" fill="none" xmlns="http://www.w3.org/2000/svg">
<path d="M18.9926 5.25V13.5C18.9926 14.3285 18.3386 15 17.5317 15H1.46097C0.654077 15 0 14.3285 0 13.5V5.25C0 4.83585 0.327112 4.5 0.730486 4.5C0.831585 4.4772 0.936191 4.4772 1.03729 4.5L9.49632 10.5L17.97 4.5C18.0664 4.4793 18.1657 4.4793 18.2622 4.5C18.6655 4.5 18.9926 4.83585 18.9926 5.25ZM0.365243 1.38L0.482121 1.5L9.49632 7.5L18.5397 1.5H18.6274C18.8898 1.35285 19.0353 1.05375 18.9926 0.75C18.9926 0.33585 18.6655 0 18.2622 0H0.730486C0.327112 0 0 0.33585 0 0.75C0.00379853 1.01175 0.142883 1.25175 0.365243 1.38Z" fill="white"/>
</svg>
