<svg width="19" height="19" viewBox="0 0 19 19" fill="none" xmlns="http://www.w3.org/2000/svg">
<path fill-rule="evenodd" clip-rule="evenodd" d="M0 9.5C0 4.25329 4.25329 0 9.5 0C14.7467 0 19 4.25329 19 9.5C19 14.7467 14.7467 19 9.5 19C4.25329 19 0 14.7467 0 9.5ZM12.0315 8.03846C11.5514 7.20706 9.32939 5.90449 7.8736 5.11476C7.3004 4.80378 7.0138 4.64831 6.77761 4.78466C6.54143 4.92102 6.53277 5.24698 6.51548 5.89889C6.47154 7.5545 6.48855 10.1301 6.96856 10.9615C7.44857 11.793 9.67071 13.0955 11.1264 13.8852C11.6996 14.1962 11.9863 14.3517 12.2225 14.2153C12.4586 14.079 12.4672 13.753 12.4846 13.1011C12.5285 11.4455 12.5115 8.86988 12.0315 8.03846Z" fill="white"/>
</svg>
